<svg viewBox="0 0 40 41">
  <path
    id="blossom"
    d="M 16.7,0.0
       C 15.8,-0.03 14.8,0.12 13.7,0.48
         6.0,2.98 7.4,10.63 11.4,15.68
         5.9,13.85 0.0,13.56 0.0,20.72
         0.0,28.33 6.8,29.68 12.7,27.96
         9.3,32.26 7.6,37.19 13.9,39.66
         21.3,42.56 25.1,36.08 25.4,29.76
         28.4,34.61 32.6,38.44 37.2,33.11
         42.6,26.82 37.0,20.89 30.8,18.78
         36.6,17.36 42.1,14.40 38.1,8.24
         33.5,1.09 25.9,5.16 22.2,10.76
         22.4,5.60 21.4,0.19 16.7,0.0 Z"
    fill="black"
  />
</svg>
